<?xml version="1.0" standalone="no"?>
<!DOCTYPE svg PUBLIC "-//W3C//DTD SVG 1.1//EN" "http://www.w3.org/Graphics/SVG/1.1/DTD/svg11.dtd" >
<!--
2013-9-30: Created.
-->
<svg>
<metadata>
Created by iconfont
</metadata>
<defs>

<font id="iconfont" horiz-adv-x="1024" >
  <font-face
    font-family="iconfont"
    font-weight="500"
    font-stretch="normal"
    units-per-em="1024"
    ascent="896"
    descent="-128"
  />
    <missing-glyph />
    
    <glyph glyph-name="x" unicode="x" horiz-adv-x="1001"
d="M281 543q-27 -1 -53 -1h-83q-18 0 -36.5 -6t-32.5 -18.5t-23 -32t-9 -45.5v-76h912v41q0 16 -0.5 30t-0.5 18q0 13 -5 29t-17 29.5t-31.5 22.5t-49.5 9h-133v-97h-438v97zM955 310v-52q0 -23 0.5 -52t0.5 -58t-10.5 -47.5t-26 -30t-33 -16t-31.5 -4.5q-14 -1 -29.5 -0.5
t-29.5 0.5h-32l-45 128h-439l-44 -128h-29h-34q-20 0 -45 1q-25 0 -41 9.5t-25.5 23t-13.5 29.5t-4 30v167h911zM163 247q-12 0 -21 -8.5t-9 -21.5t9 -21.5t21 -8.5q13 0 22 8.5t9 21.5t-9 21.5t-22 8.5zM316 123q-8 -26 -14 -48q-5 -19 -10.5 -37t-7.5 -25t-3 -15t1 -14.5
t9.5 -10.5t21.5 -4h37h67h81h80h64h36q23 0 34 12t2 38q-5 13 -9.5 30.5t-9.5 34.5q-5 19 -11 39h-368zM336 498v228q0 11 2.5 23t10 21.5t20.5 15.5t34 6h188q31 0 51.5 -14.5t20.5 -52.5v-227h-327z" />
    

    
    <glyph glyph-name="33485" unicode="&#58947;" d="M896 576c35.312 0 64-28.688 64-64l0-512c0-35.312-28.688-64-64-64L128-64c-35.282 0-64 28.688-64 64L64 512c0 35.312 28.718 64 64 64L896 576M896 640 128 640c-70.688 0-128-57.312-128-128l0-512c0-70.688 57.312-128 128-128l768 0c70.688 0 128 57.312 128 128L1024 512C1024 582.688 966.688 640 896 640L896 640zM320 704 320 768c0 35.25 28.718 64 64 64l256 0c35.312 0 64-28.75 64-64l0-64 64 0L768 768c0 70.688-57.312 128-128 128L384 896c-70.688 0-128-57.312-128-128l0-64L320 704zM704 320l-128 0 0 128-128 0 0-128-128 0 0-128 128 0 0-128 128 0 0 128 128 0L704 320z"  horiz-adv-x="1024" />

    
    <glyph glyph-name="fanhuijiuban" unicode="&#58626;" d="M227.556-14.222v56.889h568.888v-56.89H227.556zM56.889 839.11H967.11v-739.555H56.89V839.11z m56.889-56.889v-625.778h796.444V782.222H113.778zM335.644 440.889h460.8v56.889h-460.8l91.023 91.022-39.823 39.822-159.288-159.289 159.288-159.289 39.823 39.823z"  horiz-adv-x="1024" />

    
    <glyph glyph-name="gengduo" unicode="&#58627;" d="M455.111 731.022H568.89v-113.778H455.11zM455.111 731.022H568.89v-113.778H455.11z m0-284.444H568.89V332.8H455.11zM455.111 446.578H568.89V332.8H455.11z m0-284.445H568.89v-113.777H455.11zM455.111 162.133H568.89v-113.777H455.11z"  horiz-adv-x="1024" />

    
    <glyph glyph-name="ermai" unicode="&#58628;" d="M967.111 327.111c0 73.956-45.511 136.533-113.778 159.289v11.378C853.333 685.51 699.733 839.11 512 839.11s-341.333-153.6-341.333-341.333V486.4C102.4 463.644 56.889 401.067 56.889 327.111c0-96.711 73.955-170.667 170.667-170.667h56.888V497.778h-56.888c0 159.289 125.155 284.444 284.444 284.444s284.444-125.155 284.444-284.444h-56.888v-341.334h34.133c-34.133-85.333-113.778-147.91-204.8-164.977v56.889H398.222v-113.778H568.89c125.155 22.755 227.555 108.089 267.378 227.555C910.222 179.2 967.11 247.467 967.11 327.111zM227.556 213.333c-62.578 0-113.778 51.2-113.778 113.778s51.2 113.778 113.778 113.778v-227.556z m568.888 0V440.89c62.578 0 113.778-51.2 113.778-113.778s-51.2-113.778-113.778-113.778z"  horiz-adv-x="1024" />

    
    <glyph glyph-name="gantanhao" unicode="&#58629;" d="M512 839.111c-250.311 0-455.111-204.8-455.111-455.111S261.689-71.111 512-71.111 967.111 133.689 967.111 384 762.311 839.111 512 839.111m0-853.333c-221.867 0-398.222 176.355-398.222 398.222S290.133 782.222 512 782.222 910.222 605.867 910.222 384 733.867-14.222 512-14.222M512 213.333c-17.067 0-28.444-5.689-39.822-17.066-11.378-11.378-17.067-22.756-17.067-39.823 0-17.066 5.689-28.444 17.067-39.822 11.378-11.378 22.755-17.066 39.822-17.066 17.067 0 28.444 5.688 39.822 17.066C563.2 128 568.89 139.378 568.89 156.444c0 17.067-5.689 28.445-17.067 39.823-11.378 11.377-22.755 17.066-39.822 17.066z m-51.2 455.111l17.067-409.6h62.577l22.756 409.6H460.8z"  horiz-adv-x="1024" />

    
    <glyph glyph-name="dianyuan" unicode="&#58630;" d="M756.622 685.511L716.8 645.69c79.644-68.267 136.533-170.667 136.533-290.133 0-204.8-164.977-369.778-369.777-369.778S113.778 150.756 113.778 355.556c0 119.466 56.889 227.555 147.91 295.822L221.868 691.2c-102.4-73.956-164.978-199.111-164.978-335.644 0-233.245 193.422-426.667 426.667-426.667S910.222 122.31 910.222 355.556c0 130.844-62.578 250.31-153.6 329.955zM455.111 839.111H512v-512h-56.889z"  horiz-adv-x="1024" />

    
    <glyph glyph-name="chuanshu" unicode="&#58631;" d="M568.889 839.111v-227.555h56.889V782.222h227.555v-796.444H625.778v56.889h-56.89v-113.778h341.334V839.11zM398.222-14.222H170.667V782.222h227.555v-56.889h56.89V839.111H113.777V-71.11H455.11V156.444h-56.889zM449.422 674.133L216.178 440.89h580.266v56.889H352.711l136.533 130.844z m125.156-580.266L807.822 327.11H227.556v-56.889h443.733L534.756 139.378z"  horiz-adv-x="1024" />

    
    <glyph glyph-name="liebiaozhankai" unicode="&#58632;" d="M56.889 156.444H967.11v-56.888H56.89v56.888z m0 284.445h682.667V384H56.889v56.889z m0 284.444H967.11v-56.889H56.89v56.89z m830.578-312.889L768 292.978l39.822-39.822 142.222 142.222 17.067 17.066-159.289 159.29L768 531.91l119.467-119.467z"  horiz-adv-x="1024" />

    
    <glyph glyph-name="liebiaoshouqi" unicode="&#58633;" d="M967.111 99.556H56.89v56.888H967.11v-56.888z m0 284.444H284.444v56.889h682.667V384z m0 284.444H56.89v56.89H967.11v-56.89zM256 531.911l-39.822 39.822-159.29-159.289 22.756-22.755 142.223-142.222 39.822 39.822-125.156 125.155L256 531.911z"  horiz-adv-x="1024" />

    
    <glyph glyph-name="kaifa" unicode="&#58634;" d="M318.578 76.8L17.067 384l301.51 307.2 45.512-45.511L96.71 384 364.09 122.311z m386.844 0l-45.51 45.511L927.288 384 659.91 645.689l45.511 45.511L1006.933 384zM540.786 674.133l55.75-11.15-113.379-569.116-55.75 11.093z"  horiz-adv-x="1024" />

    
    <glyph glyph-name="huigun" unicode="&#58635;" d="M512 839.111c-170.667 0-318.578-96.711-398.222-233.244V782.222h-56.89V440.89h341.334v56.889H136.533C182.044 657.067 335.644 776.533 512 776.533c216.178 0 392.533-176.355 392.533-392.533S728.178-8.533 512-8.533c-130.844 0-244.622 62.577-318.578 159.289l-45.51-45.512C233.243-2.844 364.088-71.11 512-71.11c250.311 0 455.111 204.8 455.111 455.111S762.311 839.111 512 839.111zM512 304.356v307.2h-56.889v-341.334l199.111-113.778 28.445 51.2z"  horiz-adv-x="1024" />

    
    <glyph glyph-name="qizi" unicode="&#58636;" d="M853.333 213.333L739.556 497.778l113.777 284.444H227.556v56.89h-56.89v-853.334h-56.888v-56.89h170.666v56.89h-56.888V213.333h625.777z m-85.333 512l-91.022-227.555L768 270.222H227.556V725.333H768z"  horiz-adv-x="1024" />

    
    <glyph glyph-name="tishi" unicode="&#58637;" d="M398.222 156.444h227.556v-56.888H398.222v56.888z m0 341.334h56.89v-56.89h-56.89v56.89z m56.89 0h113.777v-341.334H455.11V497.778zM512-14.222c221.867 0 398.222 176.355 398.222 398.222S733.867 782.222 512 782.222 113.778 605.867 113.778 384 290.133-14.222 512-14.222z m0 853.333c250.311 0 455.111-204.8 455.111-455.111S762.311-71.111 512-71.111 56.889 133.689 56.889 384 261.689 839.111 512 839.111zM455.111 611.556a56.889 56.889 0 1 1 113.778 0 56.889 56.889 0 1 1-113.778 0z"  horiz-adv-x="1024" />

    
    <glyph glyph-name="tishi1" unicode="&#58638;" d="M398.222 384h56.89v-56.889h-56.89V384zM568.89 156.444h56.889v-56.888H398.222v56.888h56.89V384h113.777v-227.556zM455.111 497.778a56.889 56.889 0 1 1 113.778 0 56.889 56.889 0 1 1-113.778 0zM563.2 753.778L961.422 71.11c22.756-39.822-5.689-85.333-51.2-85.333H113.778c-45.511 0-73.956 45.51-51.2 85.333L460.8 753.778c22.756 39.822 79.644 39.822 102.4 0zM512 725.333L113.778 42.667h796.444L512 725.333z"  horiz-adv-x="1024" />

    
    <glyph glyph-name="miyue" unicode="&#58639;" d="M927.289 554.667l39.822 39.822L819.2 742.4l-34.133 39.822L358.4 355.556C329.956 372.622 295.822 384 256 384c-108.089 0-199.111-91.022-199.111-199.111S147.91-14.222 256-14.222s199.111 91.022 199.111 199.11c0 51.2-22.755 96.712-51.2 136.534L614.4 531.912 756.622 384l39.822 39.822-147.91 147.911 130.844 130.845 147.91-147.911zM256 42.667c-79.644 0-142.222 62.577-142.222 142.222S176.356 327.11 256 327.11s142.222-62.578 142.222-142.222S335.644 42.667 256 42.667z"  horiz-adv-x="1024" />

    
    <glyph glyph-name="wenhao" unicode="&#58640;" d="M512 839.111c-250.311 0-455.111-204.8-455.111-455.111S261.689-71.111 512-71.111 967.111 133.689 967.111 384 762.311 839.111 512 839.111m0-853.333c-221.867 0-398.222 176.355-398.222 398.222S290.133 782.222 512 782.222 910.222 605.867 910.222 384 733.867-14.222 512-14.222M506.311 213.333c-17.067 0-28.444-5.689-39.822-17.066-11.378-11.378-17.067-22.756-17.067-39.823 0-17.066 5.69-28.444 17.067-39.822 11.378-11.378 22.755-17.066 39.822-17.066 17.067 0 28.445 5.688 39.822 17.066C557.511 128 563.2 139.378 563.2 156.444c0 17.067-5.689 28.445-17.067 39.823-11.377 11.377-22.755 17.066-39.822 17.066z m17.067 466.49c-56.89 0-102.4-17.067-136.534-51.2-39.822-34.134-56.888-79.645-56.888-136.534h85.333c0 34.133 5.689 62.578 22.755 79.644 17.067 22.756 39.823 34.134 79.645 34.134 28.444 0 51.2-5.69 68.267-22.756 17.066-17.067 22.755-39.822 22.755-62.578 0-22.755-5.689-39.822-22.755-56.889l-17.067-17.066c-45.511-45.511-79.645-79.645-91.022-102.4-11.378-17.067-11.378-45.511-11.378-73.956v-11.378h85.333v11.378c0 17.067 5.69 34.134 11.378 51.2 5.689 17.067 17.067 28.445 34.133 39.822 39.823 34.134 62.578 51.2 68.267 62.578 22.756 22.756 28.444 56.89 28.444 96.711 0 45.511-17.066 85.334-45.51 113.778-34.134 34.133-73.956 45.511-125.156 45.511z"  horiz-adv-x="1024" />

    
    <glyph glyph-name="xinshouyindao" unicode="&#58641;" d="M620.089 275.911L455.11-71.11l347.022 164.978 164.978 347.022L620.09 275.91z m-73.956-256L659.911 236.09l102.4-102.4L546.133 19.91zM113.778 782.222h682.666V440.89h56.89V839.11H56.888V-71.11h341.333v56.889H113.778zM170.667 668.444H512v-56.888H170.667z m0-341.333H512v-56.889H170.667z m0 170.667h512v-56.89h-512z"  horiz-adv-x="1024" />

    
    <glyph glyph-name="yunxiazai" unicode="&#58642;" d="M796.444 440.889c-11.377 159.289-147.91 284.444-312.888 284.444S187.733 600.178 170.666 440.89C73.957 429.51 0 344.178 0 241.778c0-108.09 91.022-199.111 199.111-199.111h28.445v56.889H199.11c-79.644 0-142.222 62.577-142.222 142.222 0 73.955 51.2 130.844 125.155 142.222l45.512 5.689V435.2c11.377 130.844 125.155 233.244 256 233.244s244.622-102.4 256-233.244l5.688-45.511L785.067 384c68.266-11.378 125.155-68.267 125.155-142.222 0-79.645-62.578-142.222-142.222-142.222h-28.444v-56.89H768c108.089 0 199.111 91.023 199.111 199.112 0 102.4-73.955 182.044-170.667 199.11zM688.356 184.889l-39.823 39.822L512 88.178v409.6h-56.889v-403.911L324.267 224.71l-39.823-39.822 199.112-199.111z"  horiz-adv-x="1024" />

    
    <glyph glyph-name="zixun" unicode="&#58643;" d="M853.333 668.444V839.111H56.89V-71.11H967.11V668.444H853.333z m56.89-682.666H113.777V782.222h682.666v-682.666h56.89v512h56.888v-625.778zM227.556 156.444h455.11v-56.888h-455.11z m0 455.112v-170.667h455.11V668.444h-455.11v-56.888z m56.888 0h341.334v-113.778H284.444V611.556zM227.556 327.11h455.11v-56.889h-455.11z"  horiz-adv-x="1024" />

    
    <glyph glyph-name="yunshangchuan" unicode="&#58644;" d="M341.333 99.556v-56.89h284.445v56.89H341.333z m-142.222-56.89C91.022 42.667 0 133.69 0 241.779c0 102.4 73.956 182.044 170.667 199.11 11.377 159.29 147.91 284.445 312.889 284.445S779.378 600.178 796.444 440.89c96.712-11.378 170.667-96.711 170.667-199.111 0-108.09-91.022-199.111-199.111-199.111H199.111zM768 99.557c79.644 0 142.222 62.577 142.222 142.222 0 73.955-51.2 130.844-125.155 142.222l-45.511 5.689V435.2c-11.378 130.844-125.156 233.244-256 233.244s-244.623-102.4-256-233.244l-5.69-45.511L182.045 384C108.09 372.622 56.89 315.733 56.89 241.778c0-79.645 62.578-142.222 142.222-142.222H768zM484.409 500.622L685.568 299.52l-40.22-40.22-201.16 201.102zM282.738 296.676L483.84 497.778l40.22-40.22-201.102-201.16zM455.111 440.889H512v-455.111h-56.889z"  horiz-adv-x="1024" />

    
    <glyph glyph-name="tuding" unicode="&#58645;" d="M642 834L537 729l35-40-210-210-75 70-105-105 180-175-250-250 35-35 245 245 175-170 105 105-65 70 215 210 35-35 105 105L642 834z m180-315L537 234l75-75-35-35-320 320 35 35 70-70 285 280-35 35 35 35 245-245-35-35-35 40z"  horiz-adv-x="1024" />

    
    <glyph glyph-name="dui" unicode="&#58646;" d="M512 839.111c-250.311 0-455.111-204.8-455.111-455.111S261.689-71.111 512-71.111 967.111 133.689 967.111 384 762.311 839.111 512 839.111m0-853.333c-221.867 0-398.222 176.355-398.222 398.222S290.133 782.222 512 782.222 910.222 605.867 910.222 384 733.867-14.222 512-14.222M320.91 430.194l201.16-201.16-40.221-40.22-201.16 201.16zM725.504 515.812l40.22-40.22-281.6-281.6-40.22 40.22z"  horiz-adv-x="1024" />

    
    <glyph glyph-name="chuizhijuzhong" unicode="&#58647;" d="M512 99.556h56.889v-170.667H512z m0 341.333h56.889v-170.667H512z m0 398.222h56.889v-170.667H512zM113.778 327.111H967.11v-284.444H113.778V327.11z m56.889-227.555h739.555V270.222H170.667v-170.666z m113.777 625.777h512V440.89h-512V725.333z m56.89-56.889v-170.666h398.222V668.444H341.333z"  horiz-adv-x="1024" />

    
    <glyph glyph-name="dingceng" unicode="&#58648;" d="M204.8 446.578l39.822-45.511 210.49 216.177V-71.11H512V617.244l210.489-216.177L768 446.577 483.556 725.334zM56.889 839.11h853.333v-56.889H56.89z"  horiz-adv-x="1024" />

    
    <glyph glyph-name="cuo" unicode="&#58649;" d="M512 839.111c-250.311 0-455.111-204.8-455.111-455.111S261.689-71.111 512-71.111 967.111 133.689 967.111 384 762.311 839.111 512 839.111m0-853.333c-221.867 0-398.222 176.355-398.222 398.222S290.133 782.222 512 782.222 910.222 605.867 910.222 384 733.867-14.222 512-14.222M684.942 170.951L302.706 553.074l40.22 40.22 382.18-382.122zM298.837 211.058l382.123 382.18 40.22-40.221-382.122-382.18z"  horiz-adv-x="1024" />

    
    <glyph glyph-name="diceng" unicode="&#58650;" d="M768 321.422l-45.511 45.511L512 150.756V839.11h-56.889v-688.355L244.622 366.933l-39.822-45.51 278.756-278.756zM56.889-14.222h853.333v-56.89H56.89z"  horiz-adv-x="1024" />

    
    <glyph glyph-name="guanxitu" unicode="&#58651;" d="M824.889 213.333c-28.445 0-56.889-11.377-79.645-22.755l-45.51 45.51c22.755 34.134 39.822 73.956 39.822 119.468 0 62.577-28.445 119.466-73.956 153.6l22.756 45.51h22.755c79.645 0 142.222 62.578 142.222 142.223S790.756 839.11 711.111 839.11 568.89 776.533 568.89 696.89c0-51.2 28.444-91.022 62.578-119.467L614.4 537.6c-22.756 11.378-45.511 17.067-73.956 17.067-108.088 0-199.11-91.023-199.11-199.111 0-28.445 5.688-51.2 17.066-73.956l-39.822-17.067c-28.445 34.134-68.267 62.578-119.467 62.578-79.644 0-142.222-62.578-142.222-142.222s62.578-142.222 142.222-142.222 142.222 62.577 142.222 142.222v22.755l45.511 22.756c34.134-45.511 91.023-73.956 153.6-73.956 45.512 0 85.334 17.067 119.467 39.823l45.511-45.511c-11.378-22.756-22.755-51.2-22.755-79.645 0-79.644 62.577-142.222 142.222-142.222S967.11-8.533 967.11 71.11 904.533 213.333 824.89 213.333zM711.11 782.223c45.511 0 85.333-39.823 85.333-85.334s-39.822-85.333-85.333-85.333-85.333 39.822-85.333 85.333 39.822 85.333 85.333 85.333z m-512-682.667c-45.511 0-85.333 39.822-85.333 85.333s39.822 85.333 85.333 85.333 85.333-39.822 85.333-85.333-39.822-85.333-85.333-85.333z m199.111 256c0 79.644 62.578 142.222 142.222 142.222S682.667 435.2 682.667 355.556s-62.578-142.223-142.223-142.223-142.222 62.578-142.222 142.223zM824.89-14.222c-45.511 0-85.333 39.822-85.333 85.333s39.822 85.333 85.333 85.333 85.333-39.822 85.333-85.333-39.822-85.333-85.333-85.333z"  horiz-adv-x="1024" />

    
    <glyph glyph-name="shangduiqi" unicode="&#58652;" d="M56.889 839.111H967.11v-56.889H56.89z m0-113.778V-71.11h227.555V725.333H56.89z m56.889-56.889h113.778v-682.666H113.778V668.444z m284.444 56.89v-568.89h227.556v568.89H398.222z m56.89-56.89h113.777v-455.11H455.11v455.11z m284.444 56.89v-796.445H967.11V725.333H739.556z m56.888-56.89h113.778v-682.666H796.444V668.444z"  horiz-adv-x="1024" />

    
    <glyph glyph-name="shangyiyiceng" unicode="&#58653;" d="M56.889 384h341.333v-56.889H56.89z m512 0h341.333v-56.889H568.89zM512 731.022l136.533-130.844L688.356 640l-204.8 199.111L284.444 640l39.823-39.822L455.11 731.022v-517.689H56.89v-227.555h853.333V213.333H512v517.69z m341.333-574.578v-113.777H113.778V156.444h739.555z"  horiz-adv-x="1024" />

    
    <glyph glyph-name="shuipingjuzhong" unicode="&#58654;" d="M56.889 440.889h170.667V384H56.889z m341.333 0H568.89V384H398.222z m398.222 0h170.667V384H796.444zM455.111 839.111v-853.333H170.667V839.11H455.11z m-227.555-56.889v-739.555h170.666V782.222H227.556z m625.777-113.778v-512H568.89v512h284.444z m-56.889-56.888H625.778v-398.223h170.666V611.556z"  horiz-adv-x="1024" />

    
    <glyph glyph-name="hengxiangpingfen" unicode="&#58655;" d="M796.444 725.333H568.89v-682.666h227.555V725.333z m-56.888-625.777H625.778V668.444h113.778v-568.888zM455.11 725.333H227.556v-682.666H455.11V725.333z m-56.889-625.777H284.444V668.444h113.778v-568.888z m512 739.555h56.89V-71.11h-56.89z m-853.333 0h56.889V-71.11h-56.89z"  horiz-adv-x="1024" />

    
    <glyph glyph-name="sheji" unicode="&#58656;" d="M967.111 611.556L739.556 839.11 512 611.556 284.444 839.11 56.89 611.556 284.444 384 56.89 156.444V-71.11h227.555L512 156.444 739.556-71.11 967.11 156.444 739.556 384 967.11 611.556z m-676.978-153.6l96.711 96.71-39.822 39.823-96.71-96.711-34.134 34.133 102.4 102.4-45.511 39.822-96.711-102.4-39.823 39.823 147.911 147.91 187.734-187.733-147.911-147.91-34.134 34.133zM113.778-14.222V99.556l113.778-113.778H113.778z m170.666 22.755l-147.91 147.911 603.022 603.023 147.91-147.911-603.022-603.023z m603.023 147.911l-147.911-147.91-39.823 39.822 102.4 102.4-39.822 39.822-102.4-102.4-34.133 34.133 102.4 102.4-45.511 39.822-102.4-102.4-34.134 34.134 147.911 147.91 193.423-187.733z"  horiz-adv-x="1024" />

    
    <glyph glyph-name="tuceng" unicode="&#58657;" d="M512 292.978L56.889 554.667 512 816.356l455.111-261.69L512 292.979zM170.667 554.667L512 361.244l341.333 193.423L512 748.089 170.667 554.667zM910.222 440.889l-56.889-34.133L512 213.333 113.778 440.89l-56.89-34.133L512 145.066l455.111 261.69zM910.222 281.6l-56.889-34.133L512 54.044v-5.688L113.778 275.91l-56.89-28.444L512-14.223l455.111 261.69z"  horiz-adv-x="1024" />

    
    <glyph glyph-name="xiaduiqi" unicode="&#58658;" d="M56.889-14.222H967.11v-56.89H56.89z m227.555 56.889V839.11H56.89v-796.444h227.555zM113.778 782.222h113.778v-682.666H113.778V782.222z m512-739.555V611.556H398.222v-568.89h227.556z m-170.667 512H568.89v-455.111H455.11v455.11z m512-512V839.11H739.556v-796.444H967.11zM796.444 782.222h113.778v-682.666H796.444V782.222z"  horiz-adv-x="1024" />

    
    <glyph glyph-name="youduiqi" unicode="&#58659;" d="M910.222 839.111h56.89V-71.11h-56.89z m-56.889 0H56.89v-227.555h796.444V839.11z m-56.889-56.889v-113.778H113.778V782.222h682.666z m56.89-284.444h-568.89v-227.556h568.89V497.778z m-56.89-56.89v-113.777h-455.11V440.89h455.11z m56.89-284.444H56.888V-71.11h796.444V156.444z m-56.89-56.888v-113.778H113.778V99.556h682.666z"  horiz-adv-x="1024" />

    
    <glyph glyph-name="zhongwen" unicode="&#58660;" d="M56.889 839.111v-853.333h853.333V839.11H56.89z m796.444-796.444H113.778V782.222h739.555v-739.555zM284.444 384h170.667v-284.444H512V384h170.667v-56.889h56.889V611.556H512V725.333h-56.889v-113.777H227.556V327.11h56.888V384z m398.223 170.667v-113.778H512V554.667h170.667z m-398.223 0h170.667v-113.778H284.444V554.667z"  horiz-adv-x="1024" />

    
    <glyph glyph-name="zongxiangpingfen" unicode="&#58661;" d="M170.667 668.444V440.89h682.666V668.444H170.667z m625.777-56.888v-113.778H227.556V611.556h568.888zM170.667 327.11v-227.555h682.666V327.11H170.667z m625.777-56.889v-113.778H227.556V270.222h568.888zM56.89 839.112H967.11v-56.89H56.89z m0-853.334H967.11v-56.89H56.89z"  horiz-adv-x="1024" />

    
    <glyph glyph-name="xiayiyiceng" unicode="&#58662;" d="M56.889 839.111v-227.555H455.11v-517.69L324.267 224.712l-39.823-39.822 199.112-199.111 204.8 199.11-39.823 39.823L512 93.867V611.556h398.222V839.11H56.89z m796.444-170.667H113.778V782.222h739.555v-113.778zM56.889 497.778h341.333v-56.89H56.89z m512 0h341.333v-56.89H568.89z"  horiz-adv-x="1024" />

    
    <glyph glyph-name="yingwen" unicode="&#58663;" d="M56.889 839.111v-853.333h853.333V839.11H56.89z m796.444-796.444H113.778V782.222h739.555v-739.555zM455.111 213.333H227.556V384h170.666v56.889H227.556V611.556H455.11v56.888H170.667v-512H455.11zM568.89 440.89h170.667v-284.445h56.888V497.778H512v-341.334h56.889z"  horiz-adv-x="1024" />

    
    <glyph glyph-name="zuoduiqi" unicode="&#58664;" d="M56.889 839.111h56.889V-71.11h-56.89z m113.778 0H967.11v-227.555H170.667V839.11z m56.889-56.889v-113.778h682.666V782.222H227.556z m-56.89-284.444h568.89v-227.556h-568.89V497.778z m56.89-56.89v-113.777h455.11V440.89h-455.11z m-56.89-284.444h796.445V-71.11H170.667V156.444z m56.89-56.888v-113.778h682.666V99.556H227.556z"  horiz-adv-x="1024" />

    
    <glyph glyph-name="loading" unicode="&#58665;" d="M910.222 440.889V384H682.667v56.889h227.555z m-625.778 0V384H56.89v56.889h227.555z m170.667-227.556H512v-227.555h-56.889V213.333z m0 625.778H512v-227.555h-56.889V839.11z m341.333-699.733l-39.822-39.822-159.289 159.288 39.823 39.823 159.288-159.29zM369.778 566.044l-39.822-39.822-159.29 159.29 39.823 39.821 159.289-159.289z m-39.822-267.377l39.822-39.823-159.29-159.288-39.821 39.822 159.289 159.289z m426.666 426.666l39.822-39.822-159.288-159.289-39.823 39.822 159.29 159.29z"  horiz-adv-x="1024" />

    
    <glyph glyph-name="dabingtu" unicode="&#58666;" d="M568.889 827.733h56.889v-369.777h-56.89zM568.889 497.778h364.089v-56.89h-364.09zM455.11 782.222H512V384h-56.889z m0-398.222h455.111v-56.889h-455.11zM512-14.222c-221.867 0-398.222 176.355-398.222 398.222S290.133 782.222 512 782.222v56.89c-250.311 0-455.111-204.8-455.111-455.112S261.689-71.111 512-71.111 967.111 133.689 967.111 384h-56.889c0-221.867-176.355-398.222-398.222-398.222zM568.889 839.111v-56.889c187.733 0 341.333-153.6 341.333-341.333h56.89c0 221.867-176.356 398.222-398.223 398.222z"  horiz-adv-x="1024" />

    
    <glyph glyph-name="anzhuangbao" unicode="&#58667;" d="M56.889 611.556h853.333v-682.667H56.89V611.556z m56.889-56.89v-568.888h739.555V554.667H113.778z m85.333 170.667l-73.955-113.777H56.889l113.778 170.666h625.777l113.778-170.666h-68.266L768 725.333H199.111z m-73.955-113.777H56.889l113.778 170.666h625.777l113.778-170.666h-68.266L768 725.333H199.111l-73.955-113.777zM227.556 292.978l39.822 34.133L489.244 133.69 705.422 327.11l39.822-34.133-256-227.556zM455.111 497.778H512V128h-56.889z"  horiz-adv-x="1024" />

    
    <glyph glyph-name="ditu" unicode="&#58668;" d="M625.778 810.667h56.889V128h-56.89V810.667zM341.333 668.444h56.89v-711.11h-56.89v711.11zM56.889 839.111L358.4 668.444 659.911 839.111l307.2-170.667V-71.11L665.6 99.556 364.089-71.111l-307.2 170.667V839.11z m56.889-96.711v-608.711L358.4-2.844l301.511 170.666L904.533 31.29V634.31L659.911 770.844 358.4 600.178 113.778 742.4z"  horiz-adv-x="1024" />

    
    <glyph glyph-name="fenxiang" unicode="&#58669;" d="M284.444 611.556C159.29 611.556 56.89 509.156 56.89 384s102.4-227.556 227.555-227.556S512 258.844 512 384 409.6 611.556 284.444 611.556m0-398.223c-96.71 0-170.666 73.956-170.666 170.667s73.955 170.667 170.666 170.667S455.111 480.71 455.111 384s-73.955-170.667-170.667-170.667M824.89 839.111c-79.645 0-142.222-62.578-142.222-142.222s62.577-142.222 142.222-142.222S967.11 617.244 967.11 696.889 904.533 839.11 824.89 839.11m0-227.555c-45.511 0-85.333 39.822-85.333 85.333s39.822 85.333 85.333 85.333 85.333-39.822 85.333-85.333-39.822-85.333-85.333-85.333m0-398.223c-79.645 0-142.222-62.577-142.222-142.222S745.244-71.11 824.889-71.11 967.11-8.533 967.11 71.11 904.533 213.333 824.89 213.333m0-227.555c-45.511 0-85.333 39.822-85.333 85.333s39.822 85.333 85.333 85.333 85.333-39.822 85.333-85.333-39.822-85.333-85.333-85.333M452.38 317.781l295.595-170.666-28.444-49.266-295.595 170.667zM749.511 617.7L453.916 447.033l-28.444 49.266 295.595 170.666z"  horiz-adv-x="1024" />

    
    <glyph glyph-name="fankui" unicode="&#58670;" d="M386.844 99.556L170.667-71.111V99.556H56.889V782.222H967.11v-682.666H386.844z m-22.755 56.888h546.133v568.89H113.778v-568.89h113.778v-108.088l136.533 108.088zM227.556 384h568.888v-56.889H227.556V384z m0 170.667h568.888v-56.89H227.556v56.89z"  horiz-adv-x="1024" />

    
    <glyph glyph-name="biaoge" unicode="&#58671;" d="M56.889 839.111V-71.11H967.11V839.11H56.89z m56.889-227.555h227.555v-170.667H113.778V611.556z m512-170.667H398.222V611.556h227.556v-170.667z m0-56.889v-170.667H398.222V384h227.556z m-512 0h227.555v-170.667H113.778V384z m0-398.222V156.444h227.555v-170.666H113.778z m284.444 0V156.444h227.556v-170.666H398.222z m512 0H682.667V156.444h227.555v-170.666z m0 227.555H682.667V384h227.555v-170.667z m0 227.556H682.667V611.556h227.555v-170.667zM113.778 668.444V782.222h796.444v-113.778H113.778z"  horiz-adv-x="1024" />

    
    <glyph glyph-name="shequ" unicode="&#58672;" d="M853.333 327.111h113.778v-56.889H853.333v56.89z m56.89 455.111h56.888v-455.11h-56.889v455.11zM568.888 497.778h113.778V384H568.889V497.778zM199.11 839.11h768v-56.889H227.556v-56.889h-56.89V839.111h28.445z m199.111-341.333H512V384H398.222V497.778z m-170.666 0h113.777V384H227.556V497.778z m159.288-341.334L170.667-14.222V156.444H56.889v568.89h796.444v-568.89H386.844z m-22.755 56.89h432.355v455.11H113.778v-455.11h113.778v-108.09l136.533 108.09z"  horiz-adv-x="1024" />

    
    <glyph glyph-name="shoucang" unicode="&#58673;" d="M22.756 503.467l318.577 45.51L483.556 839.112l142.222-290.133 318.578-45.511L716.8 281.6l56.889-318.578-284.445 147.911L204.8-36.977 261.689 281.6 22.756 503.467z m460.8-324.267l210.488-108.089-39.822 233.245L824.89 469.333l-238.933 28.445-102.4 210.489-102.4-210.49-233.245-34.133 170.667-164.977-39.822-233.245 204.8 113.778z"  horiz-adv-x="1024" />

    
    <glyph glyph-name="shaixuan" unicode="&#58674;" d="M341.333-71.111h56.89V497.778l-210.49 227.555h648.534l-210.49-227.555v-341.334h56.89V475.022l284.444 307.2H56.89l284.444-307.2z"  horiz-adv-x="1024" />

    
    <glyph glyph-name="shujubiao" unicode="&#58675;" d="M398.222 440.889h56.89v-398.222h-56.89zM568.89 327.11h56.889v-284.444h-56.89z m170.667 170.667h56.888v-455.111h-56.888zM56.889 839.111H967.11V-71.11H56.89V839.11z m56.889-56.889v-796.444h796.444V782.222H113.778zM227.556 270.222h56.888v-227.555h-56.888z m-34.134 91.022l-45.51 45.512 244.621 238.933L563.2 531.91 773.689 748.09l45.511-45.511-244.622-238.934L403.91 577.422z"  horiz-adv-x="1024" />

    
    <glyph glyph-name="sandiantu" unicode="&#58676;" d="M768 99.556c-45.511 0-85.333 39.822-85.333 85.333s39.822 85.333 85.333 85.333 85.333-39.822 85.333-85.333-39.822-85.333-85.333-85.333zM426.667 384c-45.511 0-85.334 39.822-85.334 85.333s39.823 85.334 85.334 85.334S512 514.844 512 469.333 472.178 384 426.667 384z m256 227.556c-34.134 0-56.89 22.755-56.89 56.888s22.756 56.89 56.89 56.89 56.889-22.756 56.889-56.89-22.756-56.888-56.89-56.888z m227.555-170.667c-34.133 0-56.889 22.755-56.889 56.889s22.756 56.889 56.89 56.889 56.888-22.756 56.888-56.89-22.755-56.888-56.889-56.888zM227.556 554.667c-34.134 0-56.89 22.755-56.89 56.889s22.756 56.888 56.89 56.888 56.888-22.755 56.888-56.888-22.755-56.89-56.888-56.89zM512 156.444c-34.133 0-56.889 22.756-56.889 56.89s22.756 56.888 56.889 56.888 56.889-22.755 56.889-56.889-22.756-56.889-56.889-56.889zM682.667 384c-34.134 0-56.89 22.756-56.89 56.889s22.756 56.889 56.89 56.889 56.889-22.756 56.889-56.89S716.8 384 682.666 384zM284.444 99.556c-34.133 0-56.888 22.755-56.888 56.888s22.755 56.89 56.888 56.89 56.89-22.756 56.89-56.89-22.756-56.888-56.89-56.888zM56.89-42.667V839.111h56.889v-853.333H967.11v-56.89H56.89v28.445z"  horiz-adv-x="1024" />

    
    <glyph glyph-name="guanliyuan" unicode="&#58677;" d="M512 327.111c-159.289 0-284.444 125.156-284.444 284.445S352.71 896 512 896s284.444-125.156 284.444-284.444S671.29 327.11 512 327.11zM512 384c125.156 0 227.556 102.4 227.556 227.556S637.156 839.11 512 839.11s-227.556-102.4-227.556-227.555S386.844 384 512 384z m312.889-512c-79.645 0-142.222 62.578-142.222 142.222s62.577 142.222 142.222 142.222S967.11 93.867 967.11 14.222 904.533-128 824.89-128z m0 56.889c45.511 0 85.333 39.822 85.333 85.333s-39.822 85.334-85.333 85.334-85.333-39.823-85.333-85.334 39.822-85.333 85.333-85.333zM796.444 440.889h56.89v-284.445h-56.89z m56.89 0H967.11V384H853.333z m0-113.778H967.11v-56.889H853.333zM512 384l-51.2-62.578C261.689 298.667 113.778 133.69 113.778-71.11h-56.89v56.889h5.69C91.022 207.644 278.756 384 512 384z m0 0l-51.2-62.578C261.689 298.667 113.778 133.69 113.778-71.11h-56.89v56.889h5.69C91.022 207.644 278.756 384 512 384z"  horiz-adv-x="1024" />

    
    <glyph glyph-name="xihuan" unicode="&#58678;" d="M728.178 782.222c-130.845 0-210.49-102.4-210.49-102.4s-68.266 102.4-210.488 102.4S56.889 702.578 56.889 509.156c0-273.067 460.8-568.89 460.8-568.89s449.422 312.89 449.422 563.2c0 204.8-130.844 278.756-238.933 278.756m-210.49-773.689s-403.91 278.756-403.91 500.623c0 142.222 96.71 221.866 204.8 221.866 108.089 0 199.11-119.466 199.11-119.466s108.09 119.466 204.8 119.466c96.712 0 193.423-73.955 193.423-227.555-5.689-216.178-398.222-494.934-398.222-494.934"  horiz-adv-x="1024" />

    
    <glyph glyph-name="yanshi" unicode="&#58679;" d="M56.889 782.222H967.11v-56.889H56.89z m227.555-284.444h113.778v-227.556H284.444z m341.334 0h113.778v-227.556H625.778zM455.11 668.444H568.89v-398.222H455.11z m-56.889-497.038L197.12-29.753l-40.22 40.22 201.102 201.16zM826.88-29.753l-201.102 201.16 40.22 40.22 201.16-201.16zM113.778 782.222h796.444v-625.778H113.778V782.222z m56.889-56.889v-512h682.666v512H170.667z"  horiz-adv-x="1024" />

    
    <glyph glyph-name="yibiaoban" unicode="&#58680;" d="M56.889 839.111H967.11V-71.11H56.89V839.11z m56.889-56.889v-796.444h796.444V782.222H113.778zM227.556 668.444h113.777v-625.777H227.556zM455.11 497.778H568.89v-455.111H455.11zM682.667 384h113.777v-341.333H682.667z"  horiz-adv-x="1024" />

    
    <glyph glyph-name="shujuji" unicode="&#58681;" d="M483.556 839.111L56.889 611.556v-455.112L483.556-71.11l426.666 227.555V611.556L483.556 839.11z m358.4-256l-358.4-170.667-358.4 170.667 358.4 187.733 358.4-187.733z m-728.178-62.578L455.11 361.244v-347.022L113.778 190.578V520.533zM512 14.223V361.243l341.333 159.29v-335.645L512 14.222z"  horiz-adv-x="1024" />

    
    <glyph glyph-name="weizhi" unicode="&#58682;" d="M512 327.111c-96.711 0-170.667 73.956-170.667 170.667S415.29 668.444 512 668.444s170.667-73.955 170.667-170.666S608.71 327.11 512 327.11zM512 384c62.578 0 113.778 51.2 113.778 113.778S574.578 611.556 512 611.556s-113.778-51.2-113.778-113.778S449.422 384 512 384zM512-71.111C244.622 145.067 113.778 332.8 113.778 497.778 113.778 742.4 301.51 896 512 896s398.222-153.6 398.222-398.222c0-164.978-130.844-352.711-398.222-568.89z m341.333 568.889c0 199.11-147.91 341.333-341.333 341.333S170.667 696.89 170.667 497.778c0-136.534 113.777-301.511 341.333-494.934 227.556 193.423 341.333 358.4 341.333 494.934z"  horiz-adv-x="1024" />

    
    <glyph glyph-name="youjian" unicode="&#58683;" d="M56.889 725.333H967.11v-682.666H56.89V725.333z m56.889-56.889v-568.888h796.444V668.444H113.778zM512 173.511L62.578 622.933l39.822 39.823 409.6-409.6 409.6 409.6 39.822-39.823zM341.447 371.257l40.22-40.22L104.05 53.475l-40.164 40.22z m334.905 3.243l281.6-281.6-40.22-40.22-281.6 281.6z"  horiz-adv-x="1024" />

    
    <glyph glyph-name="zhexiantu" unicode="&#58684;" d="M56.889-42.667V839.111h56.889v-853.333H967.11v-56.89H56.89zM193.422 247.467l-45.51 45.51L398.221 537.6l199.111-199.111L944.356 691.2l45.51-45.511-392.533-386.845-199.11 199.112z"  horiz-adv-x="1024" />

    
    <glyph glyph-name="zhuzhuangtu" unicode="&#58685;" d="M398.222 497.778H170.667v-455.111h227.555v455.11z m-56.889-398.222H227.556V440.889h113.777v-341.333z m341.334 568.888H455.11v-625.777h227.556V668.444z m-56.89-568.888H512v512h113.778v-512zM739.557 839.11v-796.444H967.11V839.11H739.556z m170.666-739.555H796.444V782.222h113.778v-682.666zM113.778 839.111h-56.89V-71.11h910.223v56.889H113.778z"  horiz-adv-x="1024" />

    
    <glyph glyph-name="fanhui" unicode="&#58686;" d="M284.444-14.222h341.334v-56.89H284.444zM568.889 611.556v56.888c204.8 0 398.222-164.977 398.222-369.777S802.133-71.111 597.333-71.111v56.889c170.667 0 312.89 142.222 312.89 312.889S739.555 611.556 568.888 611.556z m0 56.888c204.8 0 398.222-164.977 398.222-369.777S802.133-71.111 597.333-71.111v56.889c170.667 0 312.89 142.222 312.89 312.889S739.555 611.556 568.888 611.556v56.888z m-455.111 0h455.11v-56.888h-455.11zM95.403 682.268L296.562 481.11l-40.278-40.22L55.182 642.048zM297.13 805.774L95.973 604.73l-40.22 40.163L256.852 845.938z"  horiz-adv-x="1024" />

    
    <glyph glyph-name="daochu" unicode="&#58687;" d="M910.222 42.667V440.889h56.89v-455.111H113.777v455.11h56.889v-398.221h739.555z m56.89 0l-56.89-56.89v56.89h56.89z m-796.445-56.89l-56.89 56.89h56.89v-56.89zM910.222 440.89h56.89v-455.111H113.777v455.11h56.889v-398.221h739.555V440.889zM170.667-14.222l-56.89 56.889h56.89v-56.89z m796.444 56.889l-56.889-56.89v56.89h56.89zM512 782.222h56.889v-625.778H512zM545.166 839.85l249.401-249.4-40.22-40.22-249.401 249.4zM294.514 588.004l249.344 249.4 40.22-40.22-249.4-249.4z"  horiz-adv-x="1024" />

    
    <glyph glyph-name="fangda" unicode="&#58688;" d="M722.489 253.156c45.511 62.577 73.955 136.533 73.955 216.177 0 204.8-164.977 369.778-369.777 369.778S56.889 674.133 56.889 469.333s164.978-369.777 369.778-369.777c79.644 0 153.6 28.444 216.177 68.266l221.867-221.866c22.756-22.756 56.889-22.756 79.645 0 22.755 22.755 22.755 56.888 0 79.644L722.489 253.156z m-295.822-96.712c-170.667 0-312.89 142.223-312.89 312.89S256 782.221 426.668 782.221 739.556 640 739.556 469.333s-142.223-312.889-312.89-312.889M227.556 497.778h398.222v-56.89H227.556zM398.222 668.444h56.89v-398.222h-56.89z"  horiz-adv-x="1027" />

    
    <glyph glyph-name="quxiaoquanping" unicode="&#58689;" d="M588.402 502.898l281.6 281.6 40.22-40.22-281.6-281.6z m281.6-514.845l-281.6 281.6 40.22 40.22 281.6-281.6z m-713.728-2.275l-40.22 40.22 281.6 281.6 40.163-40.22zM568.889 469.333v-28.444h284.444v56.889H625.778V725.333h-56.89z m0-170.666V327.11h284.444v-56.889H625.778v-227.555h-56.89zM111.502 742.002l40.22 40.22 281.6-281.6-40.277-40.22zM455.111 469.333v-28.444H170.667v56.889h227.555V725.333h56.89z m0-170.666V327.11H170.667v-56.889h227.555v-227.555h56.89z"  horiz-adv-x="1024" />

    
    <glyph glyph-name="jiesuo" unicode="&#58690;" d="M113.778 497.778H967.11v-512H113.778v512z m56.889-455.111h739.555V440.889H170.667v-398.222zM341.333 640h-56.889c0 142.222 113.778 256 256 256s256-113.778 256-256h-56.888c0 108.089-91.023 199.111-199.112 199.111S341.334 748.09 341.334 640z m-56.889 0c0 142.222 113.778 256 256 256s256-113.778 256-256h-56.888c0 108.089-91.023 199.111-199.112 199.111S341.334 748.09 341.334 640h-56.89zM284.444 668.444h56.89v-170.666h-56.89z m256-341.333c17.067 0 28.445-11.378 28.445-28.444s-11.378-28.445-28.445-28.445S512 281.6 512 298.667s11.378 28.444 28.444 28.444m0 56.889c-45.51 0-85.333-39.822-85.333-85.333s39.822-85.334 85.333-85.334 85.334 39.823 85.334 85.334S585.956 384 540.444 384zM512 270.222h56.889v-170.666H512z"  horiz-adv-x="1024" />

    
    <glyph glyph-name="riqi" unicode="&#58691;" d="M739.328 725.504v56.832h-56.832v-56.832H341.504v56.832h-56.832v-56.832H56.832v-739.328h910.336V725.504h-227.84z m171.008-688.64H113.664V440.832h796.672v-403.968z m0 460.8H113.664v176.64H284.16v-62.464h56.832v62.464h341.504v-62.464h56.832v62.464h170.496v-176.64zM682.496 213.504H796.16V99.84H682.496zM455.168 384h113.664v-113.664H455.168z m227.328 0H796.16v-113.664H682.496zM227.328 213.504h113.664V99.84H227.328z m227.84 0h113.664V99.84H455.168zM227.328 384h113.664v-113.664H227.328z"  horiz-adv-x="1024" />

    
    <glyph glyph-name="shang" unicode="&#58692;" d="M853.333 372.622l-39.822-45.51-301.511 256-301.511-256-39.822 39.821L512 668.444z"  horiz-adv-x="1024" />

    
    <glyph glyph-name="shangchuan" unicode="&#58693;" d="M455.111 611.556H512v-682.667h-56.889zM113.778 782.222h739.555v-682.666H625.778v-56.89h284.444V839.112H56.89v-796.444h284.444v56.889H113.778zM284.444 480.711l39.823-39.822L483.556 588.8l159.288-147.911 39.823 39.822-199.111 187.733z"  horiz-adv-x="1024" />

    
    <glyph glyph-name="daoru" unicode="&#58694;" d="M910.222 42.667V440.889h56.89v-455.111H113.777v455.11h56.889v-398.221h739.555z m56.89 0l-56.89-56.89v56.89h56.89z m-796.445-56.89l-56.89 56.89h56.89v-56.89zM910.222 440.89h56.89v-455.111H113.777v455.11h56.889v-398.221h739.555V440.889zM170.667-14.222l-56.89 56.889h56.89v-56.89z m796.444 56.889l-56.889-56.89v56.89h56.89zM512 839.111h56.889v-625.778H512zM504.946 195.925l249.4 249.401 40.221-40.22-249.4-249.401zM334.734 447.772l249.401-249.4-40.22-40.22-249.401 249.4z"  horiz-adv-x="1024" />

    
    <glyph glyph-name="shuaxin" unicode="&#58695;" d="M836.267 133.689C768 42.667 659.91-14.222 540.444-14.222c-204.8 0-369.777 164.978-369.777 369.778s164.977 369.777 369.777 369.777c176.356 0 318.578-119.466 358.4-284.444h56.89c-39.823 193.422-210.49 341.333-415.29 341.333-233.244 0-426.666-193.422-426.666-426.666S307.2-71.111 540.444-71.111c136.534 0 261.69 62.578 335.645 164.978l-39.822 39.822zM910.222 782.222v-284.444H625.778v-56.89H967.11V782.223z"  horiz-adv-x="1024" />

    
    <glyph glyph-name="shijian" unicode="&#58696;" d="M512 839.111c-250.311 0-455.111-204.8-455.111-455.111S261.689-71.111 512-71.111 967.111 133.689 967.111 384 762.311 839.111 512 839.111m0-853.333c-221.867 0-398.222 176.355-398.222 398.222S290.133 782.222 512 782.222 910.222 605.867 910.222 384 733.867-14.222 512-14.222M512 384V668.444h-56.889v-341.333h284.445V384z"  horiz-adv-x="1024" />

    
    <glyph glyph-name="sousuo" unicode="&#58697;" d="M722.489 253.156c45.511 62.577 73.955 136.533 73.955 216.177 0 204.8-164.977 369.778-369.777 369.778S56.889 674.133 56.889 469.333s164.978-369.777 369.778-369.777c79.644 0 153.6 28.444 216.177 68.266l221.867-221.866c22.756-22.756 56.889-22.756 79.645 0 22.755 22.755 22.755 56.888 0 79.644L722.489 253.156z m-295.822-96.712c-170.667 0-312.89 142.223-312.89 312.89S256 782.221 426.668 782.221 739.556 640 739.556 469.333s-142.223-312.889-312.89-312.889"  horiz-adv-x="1027" />

    
    <glyph glyph-name="suoxiao" unicode="&#58698;" d="M722.489 253.156c45.511 62.577 73.955 136.533 73.955 216.177 0 204.8-164.977 369.778-369.777 369.778S56.889 674.133 56.889 469.333s164.978-369.777 369.778-369.777c79.644 0 153.6 28.444 216.177 68.266l221.867-221.866c22.756-22.756 56.889-22.756 79.645 0 22.755 22.755 22.755 56.888 0 79.644L722.489 253.156z m-295.822-96.712c-170.667 0-312.89 142.223-312.89 312.89S256 782.221 426.668 782.221 739.556 640 739.556 469.333s-142.223-312.889-312.89-312.889M227.556 497.778h398.222v-56.89H227.556z"  horiz-adv-x="1027" />

    
    <glyph glyph-name="shijianriqi" unicode="&#58699;" d="M113.778 497.778h796.444V782.222H739.556v56.89h-56.89v-56.89H284.445v56.89h-56.888v-56.89H56.889v-739.555H455.11v56.889H113.778V497.778z m0 227.555h113.778v-56.889h56.888v56.89h398.223v-56.89h56.889v56.89h113.777v-170.667H113.778V725.333zM796.444 213.333V327.111h-56.888v-170.667h170.666v56.89zM227.556 440.89h113.777V327.11H227.556z m170.666 0H512V327.11H398.222zM227.556 270.222h113.777v-113.778H227.556zM768 440.889c-142.222 0-256-113.778-256-256s113.778-256 256-256 256 113.778 256 256-113.778 256-256 256z m0-455.111c-108.089 0-199.111 91.022-199.111 199.11S659.91 384 768 384s199.111-91.022 199.111-199.111S876.09-14.222 768-14.222z"  horiz-adv-x="1024" />

    
    <glyph glyph-name="suoding" unicode="&#58700;" d="M113.778 497.778H967.11v-512H113.778v512z m56.889-455.111h739.555V440.889H170.667v-398.222zM341.333 583.11h-56.889c0 142.222 113.778 256 256 256s256-113.778 256-256h-56.888c0 108.089-91.023 199.111-199.112 199.111s-199.11-91.022-199.11-199.11z m-56.889 0c0 142.222 113.778 256 256 256s256-113.778 256-256h-56.888c0 108.089-91.023 199.111-199.112 199.111s-199.11-91.022-199.11-199.11h-56.89zM284.444 611.556h56.89v-113.778h-56.89z m455.112 0h56.888v-113.778h-56.888zM540.444 327.11c17.067 0 28.445-11.378 28.445-28.444s-11.378-28.445-28.445-28.445S512 281.6 512 298.667s11.378 28.444 28.444 28.444m0 56.889c-45.51 0-85.333-39.822-85.333-85.333s39.822-85.334 85.333-85.334 85.334 39.823 85.334 85.334S585.956 384 540.444 384zM512 270.222h56.889v-170.666H512z"  horiz-adv-x="1024" />

    
    <glyph glyph-name="xiangxia" unicode="&#58701;" d="M853.333 622.933l-39.822 45.511-301.511-256-301.511 256-39.822-39.822L512 327.112z"  horiz-adv-x="1024" />

    
    <glyph glyph-name="xiazai" unicode="&#58702;" d="M455.111 839.111H512v-682.667h-56.889zM113.778-14.222h739.555V668.444H625.778v56.89h284.444v-796.445H56.89V725.333h284.444v-56.889H113.778zM284.444 287.289l39.823 39.822L483.556 179.2l159.288 147.911 39.823-39.822-199.111-187.733z"  horiz-adv-x="1024" />

    
    <glyph glyph-name="yidong" unicode="&#58703;" d="M768 554.667l-39.822-39.823L859.022 384H512V731.022l136.533-130.844L688.356 640l-204.8 199.111L284.444 640l39.823-39.822L455.11 731.022V384H108.09l130.844 130.844-39.822 39.823L0 355.556l199.111-199.112 39.822 39.823L108.09 327.11H455.11V-19.91L324.267 110.933l-39.823-39.822L483.556-128l199.11 199.111-39.822 39.822L512-19.91V327.11h347.022L728.178 196.267 768 156.444l199.111 199.112z"  horiz-adv-x="1024" />

    
    <glyph glyph-name="you" unicode="&#58704;" d="M386.844 725.333l-45.51-39.822 256-301.511-256-301.511 39.822-39.822L682.666 384z"  horiz-adv-x="1024" />

    
    <glyph glyph-name="zuo" unicode="&#58705;" d="M637.156 725.333l45.51-39.822-256-301.511 256-301.511-39.822-39.822L341.334 384z"  horiz-adv-x="1024" />

    
    <glyph glyph-name="guanbi" unicode="&#58706;" d="M153.998 782.222l756.224-756.224-40.22-40.22-756.224 756.224zM870.002 782.222l40.22-40.22-756.224-756.224-40.22 40.22z"  horiz-adv-x="1024" />

    
    <glyph glyph-name="baocun" unicode="&#58707;" d="M113.778 782.222h796.444v-796.444H113.778V782.222z m56.889-56.889v-682.666h682.666V725.333H170.667zM682.667 440.889V782.222h56.889V384H284.444V782.222h56.89V440.89h341.333z m0 341.333h56.889V384H284.444V782.222h56.89V440.89h341.333V782.222zM568.889 668.444h56.889v-170.666h-56.89z"  horiz-adv-x="1024" />

    
    <glyph glyph-name="beian" unicode="&#58708;" d="M512-71.111c170.667 68.267 284.444 164.978 341.333 284.444 73.956 142.223 91.023 307.2 56.89 500.623L512 839.11 113.778 708.267c-34.134-187.734-17.067-352.711 51.2-494.934C227.556 93.867 341.333-2.844 512-71.11z m-295.822 307.2c-62.578 125.155-79.645 267.378-51.2 432.355L512 782.222l347.022-113.778c22.756-164.977 5.69-307.2-56.889-426.666-51.2-102.4-147.91-182.045-290.133-244.622-147.911 56.888-244.622 142.222-295.822 238.933zM512 264.533L318.578 457.956l45.51 39.822L512 349.867l204.8 204.8 45.511-39.823z"  horiz-adv-x="1024" />

    
    <glyph glyph-name="jianqie" unicode="&#58709;" d="M227.556 839.111h56.888v-739.555h-56.888zM227.556 156.444H967.11v-56.888H227.556z m-170.667 512h739.555v-56.888H56.89zM739.556 668.444h56.888V-71.11h-56.888z"  horiz-adv-x="1024" />

    
    <glyph glyph-name="bianji" unicode="&#58710;" d="M924.9 837.12l40.22-40.22-358.002-358.002-40.277 40.22zM910.222-71.111H113.778V839.11h625.778v-56.889h-568.89v-796.444h682.667V554.667h56.89zM227.556 156.444h568.888v-56.888H227.556z m0 170.667h568.888v-56.889H227.556z m0 170.667H512v-56.89H227.556z"  horiz-adv-x="1024" />

    
    <glyph glyph-name="fuzhi" unicode="&#58711;" d="M682.667 611.556H398.222v-512H56.89V839.11h625.778v-227.555z m-56.89 170.666h-512v-625.778h227.556v512h284.445V782.222zM341.333 668.444h625.778V-71.11H341.333V668.444z m56.89-56.888v-625.778h512V611.556h-512zM625.778 497.778h56.889v-398.222h-56.89zM455.111 327.111h398.222v-56.889H455.111z"  horiz-adv-x="1024" />

    
    <glyph glyph-name="quanping" unicode="&#58712;" d="M910.222 753.778v28.444H625.778v-56.889h227.555v-227.555h56.89z m0-739.556v-28.444H625.778v56.889h227.555V270.222h56.89zM113.778 753.778v28.444h284.444v-56.889H170.667v-227.555h-56.89z m0-739.556v-28.444h284.444v56.889H170.667V270.222h-56.89zM568.889 478.834l281.6 281.6 40.22-40.278-281.6-281.6z m-153.998-35.67l-281.6 281.6 40.22 40.22 281.6-281.6z m194.218-113.777l281.6-281.6-40.22-40.164-281.6 281.6z m-153.998-44.829l-281.6-281.6-40.22 40.278 281.6 281.6z"  horiz-adv-x="1024" />

    
    <glyph glyph-name="lingcunwei" unicode="&#58713;" d="M512 668.444h56.889v-170.666H512zM113.778 725.333h113.778V384h455.11V725.333h113.778v-227.555h56.89V782.222H56.888v-796.444h568.889v56.889h-512V725.333z m512 0V440.89H284.444V725.333h341.334zM779.378 384l-39.822-39.822L870.4 213.333H398.222v-56.889H870.4L739.556 19.911l39.822-39.822 182.044 182.044 17.067 22.756z"  horiz-adv-x="1024" />

    
    <glyph glyph-name="shoujijiebang" unicode="&#58714;" d="M113.778 839.111h739.555V-71.11H113.778V839.11z m56.889-56.889v-796.444h625.777V782.222H170.667zM170.667 213.333h682.666v-56.889H170.667zM455.11 99.556H512v-56.89h-56.889v56.89z m0 0H512v-56.89h-56.889v56.89z m0-56.89L512 99.557v-56.89l-56.889 56.89H512l-56.889-56.89v56.89L512 42.666h-56.889z m-148.537 643.87l398.222-398.223-40.22-40.22-398.222 398.222zM660.537 686.535l40.22-40.22-398.222-398.223-40.22 40.22z"  horiz-adv-x="1024" />

    
    <glyph glyph-name="shanchu" unicode="&#58715;" d="M967.111 668.444H739.556V839.111H284.444v-170.667H56.89v-56.888h113.778v-682.667h682.666V611.556h113.778v56.888zM341.333 782.222h341.334v-113.778H341.333V782.222z m455.111-796.444H227.556V611.556h568.888v-625.778zM398.222 554.667h56.89v-512h-56.89z m170.667 0h56.889v-512h-56.89z"  horiz-adv-x="1024" />

    
    <glyph glyph-name="shezhi" unicode="&#58716;" d="M568.889 782.222v-113.778l39.822-11.377c11.378-5.69 17.067-5.69 28.445-11.378l34.133-17.067 28.444 28.445 51.2 51.2 45.511-45.511 39.823-39.823-56.89-56.889-28.444-28.444L768 503.467c5.689-5.69 5.689-17.067 11.378-22.756l17.066-39.822h113.778V327.11H796.444l-11.377-39.822c-5.69-11.378-5.69-17.067-11.378-28.445l-17.067-34.133 28.445-28.444 56.889-56.89-79.645-79.644-56.889 56.89-28.444 28.444L642.844 128c-11.377-5.689-17.066-5.689-28.444-11.378l-45.511-17.066v-113.778H455.11V99.556l-39.822 11.377c-5.689 0-17.067 5.69-22.756 11.378L358.4 139.378l-28.444-28.445-56.89-56.889-39.822 45.512-39.822 39.822 51.2 51.2 28.445 28.444L256 253.156c-5.689 11.377-5.689 17.066-11.378 28.444l-17.066 45.511H113.778V440.89h113.778l11.377 39.822c5.69 5.689 11.378 17.067 17.067 28.445l17.067 34.133-28.445 28.444-51.2 51.2 79.645 79.645 51.2-51.2 28.444-28.445L386.844 640c11.378 5.689 22.756 11.378 28.445 11.378l39.822 17.066V782.222H568.89m56.889 56.89H398.222v-130.845L364.09 691.2l-91.022 91.022-159.29-159.289 91.023-91.022-17.067-34.133H56.89v-227.556h130.844c5.69-11.378 11.378-22.755 11.378-34.133L102.4 139.378l79.644-79.645 79.645-79.644L358.4 76.8c11.378-5.689 17.067-5.689 28.444-11.378V-71.11H614.4V59.733c11.378 5.69 22.756 11.378 34.133 11.378l96.711-96.711 159.29 159.289-96.712 96.711c5.69 11.378 11.378 22.756 11.378 34.133h147.911V497.778H836.267c-5.69 11.378-5.69 17.066-11.378 28.444l96.711 96.711-79.644 79.645-79.645 79.644-96.711-96.71c-11.378 5.688-22.756 11.377-34.133 11.377V839.11h-5.69zM512 213.333c-96.711 0-170.667 73.956-170.667 170.667S415.29 554.667 512 554.667 682.667 480.71 682.667 384 608.71 213.333 512 213.333z m0 56.89c62.578 0 113.778 51.2 113.778 113.777S574.578 497.778 512 497.778 398.222 446.578 398.222 384 449.422 270.222 512 270.222z"  horiz-adv-x="1024" />

    
    <glyph glyph-name="shoujibangding" unicode="&#58717;" d="M113.778 839.111h739.555V-71.11H113.778V839.11z m56.889-56.889v-796.444h625.777V782.222H170.667zM170.667 213.333h625.777v-56.889H170.667zM455.11 99.556H512v-56.89h-56.889v56.89z m0 0H512v-56.89h-56.889v56.89z m0-56.89L512 99.557v-56.89l-56.889 56.89H512l-56.889-56.89v56.89L512 42.666h-56.889z m0 335.645L261.69 571.733l45.511 39.823 147.911-147.912 204.8 204.8 45.511-39.822z"  horiz-adv-x="1024" />

    
    <glyph glyph-name="tianjia" unicode="&#58718;" d="M455.111 782.222H512V-71.11h-56.889zM56.889 384h853.333v-56.889H56.89z"  horiz-adv-x="1024" />

    
    <glyph glyph-name="shouye" unicode="&#58719;" d="M989.867 361.244L512 839.111 34.133 361.244l45.511-39.822 91.023 91.022V-71.11H455.11V156.444H568.89V-71.11h284.444V412.444l91.023-91.022 45.51 39.822zM796.444-14.222H625.778V213.333H398.222v-227.555H227.556V469.333L512 759.467l284.444-290.134v-483.555z"  horiz-adv-x="1024" />

    
    <glyph glyph-name="xinyonghu" unicode="&#58720;" d="M512 270.222c-159.289 0-284.444 125.156-284.444 284.445S352.71 839.11 512 839.11s284.444-125.155 284.444-284.444S671.29 270.222 512 270.222z m0 56.89c125.156 0 227.556 102.4 227.556 227.555S637.156 782.222 512 782.222s-227.556-102.4-227.556-227.555S386.844 327.11 512 327.11zM796.444-128h-56.888V270.222h56.888V-128zM568.89 42.667v56.889H967.11v-56.89H568.89zM512 270.222c-221.867 0-398.222-176.355-398.222-398.222h-56.89c0 250.311 204.8 455.111 455.112 455.111"  horiz-adv-x="1024" />

    
    <glyph glyph-name="tuichu" unicode="&#58721;" d="M113.778 839.111h56.889V-71.11h-56.89zM113.778 839.111h56.889V-71.11h-56.89z m625.778 0h56.888v-170.667h-56.888zM739.556 839.111h56.888v-170.667h-56.888z m0-796.444h56.888V-128h-56.888zM739.556 42.667h56.888V-128h-56.888zM113.778 839.11h625.778v-56.889H113.778zM113.778 839.111h625.778v-56.889H113.778z m0-910.222h625.778V-128H113.778zM113.778-71.111h625.778V-128H113.778zM284.444 384h568.89v-56.889h-568.89zM284.444 384h568.89v-56.889h-568.89zM904.533 332.8l17.067 22.756-199.111 199.11-39.822-39.822 159.289-159.288-159.29-164.978 39.823-39.822z"  horiz-adv-x="1024" />

    
    <glyph glyph-name="yonghu" unicode="&#58722;" d="M512 270.222c-159.289 0-284.444 125.156-284.444 284.445S352.71 839.11 512 839.11s284.444-125.155 284.444-284.444S671.29 270.222 512 270.222z m0 56.89c125.156 0 227.556 102.4 227.556 227.555S637.156 782.222 512 782.222s-227.556-102.4-227.556-227.555S386.844 327.11 512 327.11zM56.889-128c0 250.311 204.8 455.111 455.111 455.111S967.111 122.311 967.111-128h-56.889c0 221.867-176.355 398.222-398.222 398.222S113.778 93.867 113.778-128h-56.89z"  horiz-adv-x="1024" />

    
    <glyph glyph-name="niantie" unicode="&#58723;" d="M739.556 497.778V725.333H512V839.111H284.444v-113.778H56.89v-739.555h341.333v-56.89h398.222l170.667 170.668V497.778H739.556zM341.333 782.222h113.778v-56.889H341.333v56.89z m-56.889-113.778H568.89v-56.888H227.556v56.888h56.888zM113.778 42.667V668.444h56.889v-113.777h455.11V668.444h56.89v-170.666H398.222v-455.111H113.778z m796.444 79.644L768-14.222h-28.444V156.444h170.666v-34.133z m-227.555 91.022v-227.555H455.11v455.11h455.111v-227.555H682.667z"  horiz-adv-x="1024" />

    
    <glyph glyph-name="yonghubianji" unicode="&#58724;" d="M512 270.222c-159.289 0-284.444 125.156-284.444 284.445S352.71 839.11 512 839.11s284.444-125.155 284.444-284.444S671.29 270.222 512 270.222z m0 56.89c125.156 0 227.556 102.4 227.556 227.555S637.156 782.222 512 782.222s-227.556-102.4-227.556-227.555S386.844 327.11 512 327.11z m56.889-398.223v56.889H967.11v-56.89H568.89z m0 170.667v56.888H967.11v-56.888H568.89zM512 270.222c-221.867 0-398.222-176.355-398.222-398.222h-56.89c0 250.311 204.8 455.111 455.112 455.111"  horiz-adv-x="1024" />

    
    <glyph glyph-name="xufei" unicode="&#58725;" d="M483.556-71.111c-227.556 0-409.6 176.355-426.667 398.222H0v-341.333h56.889V128c79.644-153.6 238.933-256 426.667-256 261.688 0 466.488 199.111 483.555 455.111h-56.889C893.156 105.244 711.112-71.11 483.556-71.11zM654.222 622.933L483.556 452.267 312.889 622.933l-39.822-39.822L415.289 440.89H284.444V384h170.667v-113.778H284.444v-56.889h170.667v-170.666H512V213.333h170.667v56.89H512V384h170.667v56.889H551.822L694.044 583.11zM910.222 725.333v-142.222c-79.644 153.6-244.622 256-426.666 256C227.556 839.111 17.066 640 0 384h56.889C73.956 605.867 256 782.222 483.556 782.222S893.156 605.867 910.222 384h56.89V725.333h-56.89z"  horiz-adv-x="1024" />

    
    <glyph glyph-name="bofang" unicode="&#58726;" d="M512-71.111c-250.311 0-455.111 204.8-455.111 455.111S261.689 839.111 512 839.111 967.111 634.311 967.111 384 762.311-71.111 512-71.111z m0 56.889c221.867 0 398.222 176.355 398.222 398.222S733.867 782.222 512 782.222 113.778 605.867 113.778 384 290.133-14.222 512-14.222zM796.444 384l-455.11-227.556V611.556z"  horiz-adv-x="1024" />

    
    <glyph glyph-name="fanli" unicode="&#58727;" d="M170.667-71.111L512 99.556l341.333-170.667V725.333H170.667V-71.11z m625.777 739.555v-648.533L682.667 76.8V668.444h113.777z m-170.666 0v-563.2L512 162.134l-113.778-56.89v563.2h227.556z m-398.222 0h113.777V76.8l-113.777-56.889V668.444zM113.778 839.111h796.444v-56.889H113.778z"  horiz-adv-x="1024" />

    
    <glyph glyph-name="ceshi" unicode="&#58728;" d="M967.111 782.222v-682.666H56.89V782.222H967.11z m-853.333-56.889v-568.889h796.444v568.89H113.778zM170.667 42.667h682.666v-56.89H170.667zM665.6 247.467l-39.822 45.51 147.91 147.912L625.779 588.8l39.822 45.511L853.333 440.89z m-307.2 0l39.822 45.51-147.91 147.912L398.221 588.8 358.4 634.311 170.667 440.89z m182.5 426.666l55.182-13.824-112.925-452.665-55.182 13.768z"  horiz-adv-x="1024" />

    
    <glyph glyph-name="bukejian" unicode="&#58729;" d="M967.111 384C853.333 611.556 699.733 725.333 512 725.333c-85.333 0-159.289-22.755-233.244-68.266l-108.09 108.089-39.822-39.823 102.4-102.4C170.667 566.044 108.09 486.4 56.89 384 170.667 156.444 318.578 42.667 512 42.667c85.333 0 164.978 22.755 233.244 68.266l108.09-108.089 39.822 39.823-102.4 102.4C859.022 201.956 915.91 281.6 967.11 384zM512 668.444c159.289 0 290.133-91.022 392.533-284.444-45.51-85.333-96.71-153.6-153.6-199.111l-56.889 56.889C722.49 281.6 739.556 332.8 739.556 384c0 125.156-102.4 227.556-227.556 227.556-51.2 0-102.4-17.067-136.533-51.2l-56.89 56.888c62.579 34.134 125.156 51.2 193.423 51.2zM369.778 480.711L608.71 241.778c-22.755-17.067-56.889-28.445-96.711-28.445-96.711 0-170.667 73.956-170.667 170.667 0 39.822 11.378 73.956 28.445 96.711z m45.51 45.511c22.756 17.067 56.89 28.445 96.712 28.445 96.711 0 170.667-73.956 170.667-170.667 0-39.822-11.378-73.956-28.445-96.711L415.29 526.222zM512 99.556c-159.289 0-290.133 91.022-392.533 284.444 45.51 85.333 96.71 153.6 153.6 199.111l56.889-56.889C301.51 486.4 284.444 435.2 284.444 384c0-125.156 102.4-227.556 227.556-227.556 51.2 0 102.4 17.067 136.533 51.2l51.2-51.2C642.844 116.622 580.267 99.556 512 99.556z"  horiz-adv-x="1024" />

    
    <glyph glyph-name="guanlian" unicode="&#58730;" d="M398.222 497.778H568.89v-56.89H398.222v56.89zM56.89 327.11h227.555v-56.889H56.89v56.89zM967.11 440.89H739.556v56.889H967.11v-56.89zM398.222 42.667h-56.889v455.11h56.89v-455.11z m540.445 0H398.222v56.889h512V440.889h56.89v-398.222h-28.445zM85.333 725.333h540.445v-56.889h-512v-341.333h-56.89V725.333h28.445z m568.89-455.11H455.11V327.11h170.667V725.333h56.889v-455.11h-28.445z"  horiz-adv-x="1024" />

    
    <glyph glyph-name="fabu" unicode="&#58731;" d="M51.2 384l278.756-136.533 22.755 45.51L176.356 384l671.288 364.089L398.222 224.71V-71.11h56.89V201.956l460.8 534.755L773.688 31.29 529.067 179.2l-34.134-45.511L819.2-59.733 1006.933 890.31z"  horiz-adv-x="1024" />

    
    <glyph glyph-name="jihe" unicode="&#58732;" d="M568.889 327.111h341.333v-341.333H568.89V327.11z m56.889-284.444h227.555V270.222H625.778v-227.555z m-512 284.444H455.11v-341.333H113.778V327.11z m56.889-284.444h227.555V270.222H170.667v-227.555z m398.222 739.555h341.333V440.89H568.89V782.222z m56.889-56.889v-227.555h227.555V725.333H625.778z m-512 56.89H455.11v-341.334H113.778V782.222z m56.889-56.89v-227.555h227.555V725.333H170.667z"  horiz-adv-x="1024" />

    
    <glyph glyph-name="moban" unicode="&#58733;" d="M341.333 327.111h341.334v-56.889H341.333v56.89z m0 170.667h341.334v-56.89H341.333v56.89z m0 170.666h341.334v-56.888H341.333v56.888z m512-625.777V327.11h56.89v-341.333H113.777V327.11h56.889v-284.444h682.666zM227.556 839.111h568.888v-739.555H227.556V839.11z m56.888-56.889v-625.778h455.112V782.222H284.444z"  horiz-adv-x="1024" />

    
    <glyph glyph-name="liebiao" unicode="&#58734;" d="M341.333 725.333h568.89v-113.777h-568.89z m-227.555 0h113.778v-113.777H113.778z m0-284.444h113.778V327.11H113.778z m0-284.445h113.778v-113.777H113.778z m227.555 0h568.89v-113.777h-568.89z m0 284.445h568.89V327.11h-568.89z"  horiz-adv-x="1024" />

    
    <glyph glyph-name="rizhi" unicode="&#58735;" d="M568.889-14.222h-512V782.222h739.555V384h-56.888V725.333H113.778v-682.666H512zM711.111 384c108.089 0 199.111-91.022 199.111-199.111S819.2-14.222 711.112-14.222 512 76.8 512 184.888 603.022 384 711.111 384m0 56.889c-142.222 0-256-113.778-256-256s113.778-256 256-256 256 113.778 256 256-113.778 256-256 256zM227.556 839.11h56.888v-170.667h-56.888z m341.333 0h56.889v-170.667h-56.89zM170.667 554.667h512v-56.89h-512z m0-170.667H455.11v-56.889H170.667z m0-170.667h227.555v-56.889H170.667zM853.333 99.556H682.667V327.11h56.889v-170.667h113.777z"  horiz-adv-x="1024" />

    
    <glyph glyph-name="shuju" unicode="&#58736;" d="M227.556 782.222h113.777v-56.889H227.556z m0-341.333h113.777V384H227.556z m0-341.333h113.777v-56.89H227.556zM853.333 839.111v-170.667H170.667V839.111h682.666M910.223 896H113.777v-284.444h796.444V896z m-56.89-398.222V327.11H170.667V497.778h682.666m56.89 56.889H113.777v-284.445h796.444V554.667z m-56.89-398.223v-170.666H170.667V156.444h682.666m56.89 56.89H113.777v-284.445h796.444V213.333z"  horiz-adv-x="1024" />

    
    <glyph glyph-name="kejian" unicode="&#58737;" d="M56.889 384C170.667 611.556 324.267 725.333 512 725.333S853.333 611.556 967.111 384C853.333 156.444 705.422 42.667 512 42.667S170.667 156.444 56.889 384zM512 99.556c159.289 0 290.133 91.022 392.533 284.444C802.133 577.422 671.29 668.444 512 668.444S221.867 577.422 119.467 384C221.867 190.578 352.71 99.556 512 99.556zM512 156.444c-125.156 0-227.556 102.4-227.556 227.556S386.844 611.556 512 611.556 739.556 509.156 739.556 384 637.156 156.444 512 156.444z m0 56.89c96.711 0 170.667 73.955 170.667 170.666S608.71 554.667 512 554.667 341.333 480.71 341.333 384 415.29 213.333 512 213.333z"  horiz-adv-x="1024" />

    
    <glyph glyph-name="tingzhi" unicode="&#58738;" d="M512-71.111c-250.311 0-455.111 204.8-455.111 455.111S261.689 839.111 512 839.111 967.111 634.311 967.111 384 762.311-71.111 512-71.111z m0 56.889c221.867 0 398.222 176.355 398.222 398.222S733.867 782.222 512 782.222 113.778 605.867 113.778 384 290.133-14.222 512-14.222zM341.333 554.667h341.334v-341.334H341.333z"  horiz-adv-x="1024" />

    
    <glyph glyph-name="xianshang" unicode="&#58739;" d="M170.667 42.667h682.666v-56.89H170.667z m312.889 312.889l-142.223 147.91-39.822-39.822 187.733-193.422 250.312 307.2-45.512 39.822zM56.889 782.222v-682.666H967.11V782.222H56.89z m853.333-625.778H113.778v568.89h796.444v-568.89z"  horiz-adv-x="1024" />

    
    <glyph glyph-name="xinshuju" unicode="&#58740;" d="M227.556 782.222h113.777v-56.889H227.556z m0-341.333h113.777V384H227.556z m0-341.333h113.777v-56.89H227.556zM853.333 839.111v-170.667H170.667V839.111h682.666M910.223 896H113.777v-284.444h796.444V896zM455.11 270.222H113.778V554.667h796.444V384h-56.889V497.778H170.667V327.11H455.11z m0-341.333H113.778V213.333H455.11v-56.889H170.667v-170.666H455.11zM739.556 99.556v-170.667h-56.89V99.556H512v56.888h170.667V327.111h56.889v-170.667h170.666v-56.888z"  horiz-adv-x="1024" />

    
    <glyph glyph-name="yewu" unicode="&#58741;" d="M398.222 497.778h341.334v-56.89H398.222z m0 170.666h341.334v-56.888H398.222zM853.333 327.111v512H284.444v-113.778H170.667v-398.222h-56.89V-71.11h796.445V327.11h-56.889z m-512 455.111h455.111v-455.11H568.89v-113.779H455.11V327.111H341.333V782.222zM227.556 668.444h56.888v-341.333h-56.888V668.444z m625.777-682.666H170.667V270.222h227.555v-113.778h227.556V270.222h227.555v-284.444z"  horiz-adv-x="1024" />

    
    <glyph glyph-name="yujing" unicode="&#58742;" d="M512 839.111c221.867 0 398.222-176.355 398.222-398.222v-398.222H113.778V440.889C113.778 662.756 290.133 839.11 512 839.11z m341.333-739.555V440.889c0 187.733-153.6 341.333-341.333 341.333s-341.333-153.6-341.333-341.333v-341.333h682.666zM113.778-14.222h796.444v-56.89H113.778zM392.533 196.267l39.823-39.823L705.422 435.2H477.867L659.91 611.556l-39.822 39.822L341.333 378.31H568.89z"  horiz-adv-x="1024" />

    
    <glyph glyph-name="yulan" unicode="&#58743;" d="M642.844 213.333l39.823 39.823L910.222 25.6 870.4-14.222 642.844 213.333z m210.49 568.89h56.888v-568.89h-56.889v568.89z m-682.667 0h682.666v-56.89H170.667v56.89z m0-739.556h512v-56.89h-568.89V782.223h56.89v-739.555zM512 156.444c-125.156 0-227.556 102.4-227.556 227.556S386.844 611.556 512 611.556 739.556 509.156 739.556 384 637.156 156.444 512 156.444z m0 56.89c96.711 0 170.667 73.955 170.667 170.666S608.71 554.667 512 554.667 341.333 480.71 341.333 384 415.29 213.333 512 213.333z"  horiz-adv-x="1024" />

    
    <glyph glyph-name="yuncunchu" unicode="&#58744;" d="M796.444 440.889c-17.066 159.289-147.91 284.444-312.888 284.444S182.044 600.178 170.666 440.89C73.957 423.822 0 344.178 0 241.778c0-108.09 91.022-199.111 199.111-199.111h199.111V389.689l85.334 85.333 85.333-85.333v-347.022H768c108.089 0 199.111 91.022 199.111 199.11 0 102.4-73.955 187.734-170.667 199.112zM768 99.556H625.778V332.8l68.266-68.267 39.823 39.823-250.311 250.31-256-256 39.822-39.822 73.955 73.956v-233.244H199.111c-79.644 0-142.222 62.577-142.222 142.222 0 73.955 51.2 130.844 125.155 142.222l39.823 5.689 5.689 45.511c11.377 130.844 125.155 233.244 256 233.244s244.622-102.4 256-233.244v-45.511l45.51-5.689c73.956-11.378 125.156-68.267 125.156-142.222 0-79.645-62.578-142.222-142.222-142.222z"  horiz-adv-x="1024" />

    
    <glyph glyph-name="zanting" unicode="&#58745;" d="M512-71.111c-250.311 0-455.111 204.8-455.111 455.111S261.689 839.111 512 839.111 967.111 634.311 967.111 384 762.311-71.111 512-71.111z m0 56.889c221.867 0 398.222 176.355 398.222 398.222S733.867 782.222 512 782.222 113.778 605.867 113.778 384 290.133-14.222 512-14.222zM341.333 554.667h113.778v-398.223H341.333z m227.556 0h113.778v-398.223H568.889z"  horiz-adv-x="1024" />

    
    <glyph glyph-name="wenjianjia" unicode="&#58746;" d="M56.889 725.333h284.444l113.778-113.777h512v-625.778H56.89V725.333z m56.889-682.666h796.444v512H432.356L318.578 668.444h-204.8v-625.777z"  horiz-adv-x="1024" />

    
    <glyph glyph-name="wenjian" unicode="&#58747;" d="M682.667 839.111h-512V-71.11h682.666V668.444L682.667 839.111z m113.777-853.333H227.556V782.222h341.333v-227.555h227.555v-568.89zM625.778 611.556V782.222h34.133L796.444 645.69v-34.133H625.778zM284.444 213.333h455.112v-56.889H284.444z m0 170.667h455.112v-56.889H284.444z"  horiz-adv-x="1024" />

    
    <glyph glyph-name="xinjianwenjian" unicode="&#58748;" d="M676.978 839.111h-512V-71.11h284.444v56.889H221.867V782.222H563.2v-227.555h227.556V327.11h56.888V668.444L676.978 839.111z m-56.89-227.555V782.222h34.134L790.756 645.69v-34.133H620.089zM676.978 327.111h-56.89v-170.667H449.423v-56.888H620.09v-170.667h56.889V99.556h170.666v56.888H676.978z"  horiz-adv-x="1024" />

    
    <glyph glyph-name="kaiwenjianjia" unicode="&#58749;" d="M910.222 497.778V611.556h-455.11L341.332 725.333H56.89v-739.555h853.333l102.4 455.11 11.378 56.89H910.222z m-45.51-455.111H113.777V668.444h204.8l113.778-113.777h420.977v-56.89H284.444L170.667 327.112h73.955l79.645 113.778h625.777l-85.333-398.222z"  horiz-adv-x="1024" />

    
    <glyph glyph-name="xinwenjianjia" unicode="&#58750;" d="M910.222 440.889h56.89V668.444h-512L341.332 782.222H56.89v-739.555h512v56.889H113.778V725.333h204.8l113.778-113.777h477.866v-170.667zM113.778 99.556V725.333h204.8l113.778-113.777h477.866v-170.667h56.89V668.444h-512L341.332 782.222H56.89v-739.555h512v56.889H113.778zM739.556 270.222H568.889v-56.889h170.667v-170.666h56.888V213.333h170.667v56.89H796.444V440.888h-56.888z"  horiz-adv-x="1024" />

    
    <glyph glyph-name="wenjianleixing" unicode="&#58751;" d="M568.889 327.111h56.889v-170.667h-56.89zM967.111 440.889H796.444V668.444L625.778 839.111h-512V-71.11h682.666V42.667h170.667V440.889zM739.556 156.444v-56.888H512V384h170.667v-227.556h56.889zM603.022 782.222L739.556 645.69v-34.133H568.889V782.222h34.133z m136.534-796.444h-568.89V782.222H512v-227.555h227.556v-113.778h-512v-398.222h512v-56.89zM455.11 327.11H341.333v-56.889h113.778v-170.666H284.444v56.888h113.778v56.89H284.444V384h170.667v-56.889z m455.111-227.555H796.444V384h56.89v-227.556h56.888v-56.888z"  horiz-adv-x="1024" />

    


  </font>
</defs>
</svg>
